<svg id="logo" xmlns="http://www.w3.org/2000/svg" width="61.62" height="62.425" viewBox="0 0 61.62 62.425">
  <path id="Path_465" data-name="Path 465" d="M301.664,55.887a5.093,5.093,0,0,1-2.132-2.53,5.086,5.086,0,0,1,.7-3.234,1.46,1.46,0,0,0-.01-1.388l-1.711-2.312A1.455,1.455,0,0,0,297.19,46a5.08,5.08,0,0,1-3.3-.282,5.079,5.079,0,0,1-1.79-2.782,1.446,1.446,0,0,0-.988-.971l-2.845-.43a1.459,1.459,0,0,0-1.232.641,3.75,3.75,0,0,1-5.763,1.432,1.456,1.456,0,0,0-1.387.01l-2.313,1.711a1.453,1.453,0,0,0-.42,1.322,5.082,5.082,0,0,1-.28,3.294,5.1,5.1,0,0,1-2.782,1.79,1.452,1.452,0,0,0-.971.99l-.429,2.843a1.457,1.457,0,0,0,.64,1.232,5.086,5.086,0,0,1,2.13,2.529,5.084,5.084,0,0,1-.7,3.232,1.457,1.457,0,0,0,.011,1.388l1.711,2.311a1.449,1.449,0,0,0,1.322.42,3.748,3.748,0,0,1,5.086,3.065,1.453,1.453,0,0,0,.99.972l2.842.428a1.462,1.462,0,0,0,1.234-.64,3.75,3.75,0,0,1,5.763-1.428,1.456,1.456,0,0,0,1.387-.01l2.312-1.709a1.453,1.453,0,0,0,.42-1.322,5.106,5.106,0,0,1,.28-3.3,5.092,5.092,0,0,1,2.785-1.79,1.451,1.451,0,0,0,.971-.989l.429-2.843A1.459,1.459,0,0,0,301.664,55.887Zm-9.207,3.442a5.788,5.788,0,1,1-1.973-7.944A5.788,5.788,0,0,1,292.457,59.328Z" transform="translate(-272.691 -41.535)" fill="#dadee0"/>
  <path id="Path_464" data-name="Path 464" d="M49.678,126.392l-.69-3.811a2.555,2.555,0,0,0-2.02-1.769,3.907,3.907,0,0,1-3.16-5.875,2.68,2.68,0,0,0-.314-2.7s-.475-.565-1.35-1.4-1.458-1.286-1.458-1.286a2.681,2.681,0,0,0-2.712-.194,4.556,4.556,0,0,1-3.818.24,4.552,4.552,0,0,1-2.191-3.135,2.553,2.553,0,0,0-1.854-1.941l-3.84-.52a2.567,2.567,0,0,0-2.307,1.379,4.56,4.56,0,0,1-2.946,2.433,4.552,4.552,0,0,1-3.617-1.251,2.561,2.561,0,0,0-2.641-.484l-3.411,1.843a2.558,2.558,0,0,0-1.056,2.47,4.552,4.552,0,0,1-.952,3.7,4.553,4.553,0,0,1-3.655,1.115,2.558,2.558,0,0,0-2.42,1.165l-1.69,3.489a2.563,2.563,0,0,0,.6,2.619,4.553,4.553,0,0,1,1.409,3.558,4.553,4.553,0,0,1-2.3,3.05,2.563,2.563,0,0,0-1.275,2.366l.69,3.814a2.554,2.554,0,0,0,2.02,1.768,4.544,4.544,0,0,1,3.227,2.05,4.553,4.553,0,0,1-.068,3.822,2.682,2.682,0,0,0,.314,2.7s.475.565,1.349,1.4S9,148.294,9,148.294a2.683,2.683,0,0,0,2.712.193,4.558,4.558,0,0,1,3.817-.238,4.551,4.551,0,0,1,2.191,3.134,2.556,2.556,0,0,0,1.855,1.94l3.84.52a2.568,2.568,0,0,0,2.307-1.379,4.545,4.545,0,0,1,2.945-2.43,4.554,4.554,0,0,1,3.616,1.247,2.562,2.562,0,0,0,2.642.484l3.411-1.843a2.556,2.556,0,0,0,1.056-2.468,4.552,4.552,0,0,1,.952-3.7A4.55,4.55,0,0,1,44,142.638a2.559,2.559,0,0,0,2.421-1.165l1.689-3.488a2.563,2.563,0,0,0-.6-2.619,3.9,3.9,0,0,1,.89-6.608A2.566,2.566,0,0,0,49.678,126.392ZM33.242,136.955a11.62,11.62,0,1,1-.365-16.43A11.62,11.62,0,0,1,33.242,136.955Z" transform="translate(11.931 -91.422)" fill="#f1404b"/>
</svg>